<?xml version="1.0" encoding="UTF-8" standalone="no"?>
<svg
   id="Outline"
   viewBox="0 0 24 24"
   width="512"
   height="512"
   version="1.1"
   sodipodi:docname="icon.svg"
   inkscape:version="1.1 (c68e22c387, 2021-05-23)"
   inkscape:export-filename="C:\dev\chipkin\electron-starting-point\static\images\icon"
   inkscape:export-xdpi="96"
   inkscape:export-ydpi="96"
   xmlns:inkscape="http://www.inkscape.org/namespaces/inkscape"
   xmlns:sodipodi="http://sodipodi.sourceforge.net/DTD/sodipodi-0.dtd"
   xmlns="http://www.w3.org/2000/svg"
   xmlns:svg="http://www.w3.org/2000/svg">
  <defs
     id="defs7" />
  <sodipodi:namedview
     id="namedview5"
     pagecolor="#ffffff"
     bordercolor="#666666"
     borderopacity="1.0"
     inkscape:pageshadow="2"
     inkscape:pageopacity="0.0"
     inkscape:pagecheckerboard="0"
     showgrid="false"
     inkscape:zoom="1.5214844"
     inkscape:cx="256.65725"
     inkscape:cy="251.0706"
     inkscape:window-width="3840"
     inkscape:window-height="2036"
     inkscape:window-x="4468"
     inkscape:window-y="-12"
     inkscape:window-maximized="1"
     inkscape:current-layer="Outline" />
  <path
     d="M23.836,8.794a3.179,3.179,0,0,0-3.067-2.226H16.4L15.073,2.432a3.227,3.227,0,0,0-6.146,0L7.6,6.568H3.231a3.227,3.227,0,0,0-1.9,5.832L4.887,15,3.535,19.187A3.178,3.178,0,0,0,4.719,22.8a3.177,3.177,0,0,0,3.8-.019L12,20.219l3.482,2.559a3.227,3.227,0,0,0,4.983-3.591L19.113,15l3.56-2.6A3.177,3.177,0,0,0,23.836,8.794Zm-2.343,1.991-4.144,3.029a1,1,0,0,0-.362,1.116L18.562,19.8a1.227,1.227,0,0,1-1.895,1.365l-4.075-3a1,1,0,0,0-1.184,0l-4.075,3a1.227,1.227,0,0,1-1.9-1.365L7.013,14.93a1,1,0,0,0-.362-1.116L2.507,10.785a1.227,1.227,0,0,1,.724-2.217h5.1a1,1,0,0,0,.952-.694l1.55-4.831a1.227,1.227,0,0,1,2.336,0l1.55,4.831a1,1,0,0,0,.952.694h5.1a1.227,1.227,0,0,1,.724,2.217Z"
     id="path2" />
  <path
     style="opacity:0.3;fill:#0000ff;stroke:#ff00ff;stroke-width:0.0657253;stroke-linejoin:round;stop-color:#000000"
     d="m 134.09552,455.45078 c -1.97942,-0.55518 -4.79935,-1.7129 -6.26651,-2.57271 -3.83384,-2.24677 -8.67793,-7.69054 -10.71965,-12.04668 -1.52312,-3.24967 -1.76148,-4.60312 -1.76148,-10.00212 v -6.2439 L 133.05229,370.362 c 16.40193,-50.23428 17.70313,-54.56183 17.68713,-58.82413 -0.0188,-4.99945 -1.40496,-9.02797 -4.50492,-13.09224 -0.95206,-1.2482 -22.32215,-17.29832 -47.489104,-35.66692 -25.16695,-18.3686 -46.987576,-34.66023 -48.490279,-36.20362 -1.502704,-1.54339 -3.590701,-4.50102 -4.639994,-6.57253 -1.761684,-3.47788 -1.907806,-4.3201 -1.907806,-10.99614 0,-6.60566 0.160563,-7.5569 1.859953,-11.01909 2.587942,-5.27244 7.358098,-9.95172 12.747318,-12.50447 l 4.453063,-2.1093 60.138639,-0.32863 c 60.12336,-0.32854 60.13943,-0.329 63.24964,-1.76564 4.49777,-2.07759 7.39314,-4.48342 9.60291,-7.97927 1.33476,-2.11159 7.22783,-19.60697 18.85621,-55.98038 9.30308,-29.099871 17.80375,-54.610119 18.89038,-56.689438 6.25546,-11.97001 21.17051,-16.76949 33.81821,-10.882286 3.9638,1.845053 10.00727,7.845398 11.78937,11.705229 0.75105,1.626701 8.84115,26.322978 17.97799,54.880615 9.13684,28.55764 17.30822,53.31797 18.15861,55.02296 2.08447,4.17928 5.60495,7.5608 10.03373,9.6377 l 3.67173,1.72188 60.13864,0.32863 60.13864,0.32863 4.43038,2.09869 c 8.09333,3.83386 13.70591,11.2615 14.80338,19.59065 1.0834,8.22233 -1.36587,16.15541 -6.63895,21.50319 -1.52671,1.54835 -22.86182,17.45548 -47.41135,35.34919 -24.54954,17.89371 -45.79181,33.67331 -47.20506,35.06578 -4.00458,3.94572 -5.9766,8.91724 -5.90247,14.88034 0.0572,4.59797 1.26037,8.61001 17.64283,58.82923 17.53207,53.74329 17.58164,53.91136 17.63797,59.81001 0.051,5.33779 -0.14624,6.34388 -2.02012,10.30547 -2.6291,5.55819 -6.40226,9.66283 -11.22484,12.21094 -7.13938,3.77224 -14.02379,4.22396 -21.53649,1.4131 -2.45958,-0.92025 -17.28232,-11.45928 -49.40273,-35.12559 -32.62849,-24.04066 -46.83848,-34.13761 -49.17512,-34.94154 -4.20726,-1.44752 -10.27002,-1.44383 -14.45956,0.009 -2.32198,0.80509 -16.7146,11.03298 -49.0497,34.85641 -26.12044,19.24468 -47.24756,34.35543 -49.22108,35.20442 -4.49986,1.93579 -11.56798,2.37448 -16.40392,1.01814 z"
     id="path898"
     transform="scale(0.046875)" />
  <path
     style="opacity:1;fill:#0000ff;stroke:#ff00ff;stroke-width:0.0657253;stroke-linejoin:round;stop-color:#000000"
     d="m 133.09371,454.88549 c -4.41052,-1.39487 -6.41311,-2.72133 -10.36658,-6.86659 -5.59732,-5.86887 -7.03626,-9.42057 -7.0442,-17.38703 l -0.006,-6.44129 13.75517,-42.19542 c 23.25052,-71.32339 22.55263,-68.76522 20.69694,-75.86571 -1.96888,-7.53365 -0.0585,-5.91247 -51.212062,-43.45873 -56.846908,-41.72508 -54.886883,-39.80316 -54.874195,-53.80751 0.0056,-6.14139 0.222141,-7.54994 1.623797,-10.56068 2.107528,-4.52695 7.650003,-10.01407 12.679688,-12.55305 l 4.005188,-2.02181 60.675564,-0.50569 60.67558,-0.50568 2.95764,-1.46168 c 1.6267,-0.80392 4.07693,-2.38661 5.44496,-3.51708 4.34327,-3.58906 2.33009,1.96089 30.37951,-83.750379 5.67835,-17.351475 10.77315,-32.418271 11.32176,-33.481768 0.54862,-1.063497 2.44752,-3.466825 4.21978,-5.340729 11.54373,-12.205787 32.86599,-9.000887 40.54716,6.094551 0.69806,1.371873 6.05225,17.282504 11.8982,35.356958 16.33865,50.515717 23.72784,72.722357 25.08986,75.402307 1.78968,3.52145 5.32557,6.80954 9.63994,8.96436 l 3.75408,1.87498 60.37058,0.42188 60.37059,0.42188 4.55643,2.39434 c 10.81814,5.68477 16.11075,16.81359 13.49813,28.38262 -0.63414,2.80808 -1.97335,6.14174 -3.3011,8.21735 -2.60383,4.07044 -5.06667,5.98565 -52.68077,40.96681 -17.71297,13.01337 -35.16789,25.88448 -38.78873,28.60247 -9.17607,6.88804 -11.66344,11.04815 -11.70313,19.57343 -0.0225,4.83602 1.08559,8.54551 18.95456,63.45279 15.12021,46.46098 15.48281,47.70741 15.90213,54.66325 0.34524,5.72719 0.26317,6.24048 -1.65252,10.3342 -2.6977,5.76484 -7.15641,10.40945 -12.53448,13.05706 -4.00708,1.97268 -4.81479,2.13034 -10.91369,2.13034 -5.52264,0 -7.06401,-0.23941 -9.54399,-1.48241 -3.31502,-1.66155 -16.14872,-10.80217 -51.02063,-36.33872 -49.66973,-36.37294 -46.56406,-34.41096 -54.46992,-34.41096 -6.42213,0 -8.61198,0.98405 -18.86102,8.47551 -76.06023,55.59569 -85.0027,61.94534 -88.88196,63.11114 -3.90124,1.17241 -11.54051,1.19996 -15.16184,0.0547 z"
     id="path896"
     transform="scale(0.046875)" />
  <path
     style="opacity:1;fill:#0000ff;stroke:#ff00ff;stroke-width:0.00329606;stroke-linejoin:round;stop-color:#000000"
     d="M 5.7413961,21.751419 C 5.5747397,21.693011 5.164583,21.308833 5.0673598,21.120078 5.0345023,21.056286 4.9952222,20.864069 4.975799,20.672027 L 4.941783,20.335697 5.6690444,18.097466 C 6.7779187,14.684782 6.7692279,14.716051 6.7011046,14.384254 6.6176523,13.977795 6.6593576,14.014127 4.1765976,12.185033 1.8175162,10.447056 1.5385202,10.218074 1.420314,9.9228498 1.3989159,9.8694072 1.3827366,9.6643257 1.3835198,9.4564622 1.3847104,9.140439 1.3959524,9.0626665 1.4593835,8.9316355 1.5596848,8.7244403 1.8584645,8.4330627 2.099688,8.3071934 L 2.2970228,8.2042258 5.3440654,8.1829526 8.3911079,8.1616793 8.5412346,8.0748119 C 8.8721808,7.883319 8.9257377,7.8205987 9.0650284,7.4614027 9.1368405,7.2762173 9.5761017,5.9714915 10.041164,4.562011 l 0.845571,-2.5626904 0.181919,-0.1964955 c 0.111503,-0.1204369 0.254356,-0.2320669 0.369056,-0.2883932 0.168692,-0.082841 0.221247,-0.091897 0.533222,-0.091897 0.311627,0 0.366505,0.00943 0.551177,0.094734 0.241905,0.1117376 0.506703,0.3740913 0.602023,0.5964648 0.03538,0.08252 0.34617,1.0138472 0.69066,2.0696153 0.891753,2.7329775 1.108816,3.372741 1.18754,3.5001192 0.09304,0.1505455 0.26396,0.2965255 0.468585,0.4002173 l 0.168544,0.085406 3.019169,0.017397 3.019171,0.017397 0.193312,0.1015093 c 0.609945,0.320287 0.873846,0.9082653 0.685688,1.5277328 -0.128505,0.4230754 -0.05101,0.3572494 -2.844854,2.4165614 -1.094174,0.806505 -2.052141,1.523769 -2.128814,1.59392 -0.264968,0.242428 -0.381834,0.623353 -0.305716,0.996479 0.04865,0.238492 0.244434,0.866751 0.923597,2.963817 0.769758,2.376798 0.762703,2.352057 0.782237,2.743115 0.01597,0.319762 0.01209,0.346733 -0.07597,0.527367 -0.114033,0.233893 -0.403767,0.528829 -0.624403,0.635613 -0.130697,0.06326 -0.231024,0.08234 -0.484793,0.09223 -0.285474,0.01112 -0.338803,0.0037 -0.494407,-0.06832 -0.18933,-0.08769 -0.877164,-0.575314 -2.89366,-2.05137 -1.508094,-1.103909 -1.949042,-1.408242 -2.12412,-1.466023 -0.20789,-0.06861 -0.568406,-0.029 -0.779462,0.08563 -0.09802,0.05325 -0.623193,0.421712 -1.16704,0.81882 -2.7081993,1.97748 -3.5268505,2.55772 -3.726115,2.640978 -0.1526318,0.06377 -0.6779725,0.05743 -0.8718757,-0.01053 z"
     id="path972" />
</svg>
